<svg xmlns="http://www.w3.org/2000/svg" viewBox="0 0 847 1058.75">
  <path d="M446 238c45,3 84,14 120,31l36 -100c3,-8 12,-12 20,-9l16 6c8,3 13,12 10,20l-39 106c33,20 63,43 94,67l1 -1 77 -92c6,-7 16,-8 22,-2l14 11c6,6 7,15 2,22l-77 92c24,18 48,35 75,51l18 11 0 60 -18 12c-133,80 -223,204 -393,202 -172,2 -262,-122 -394,-202l-18 -12 0 -60 18 -11c24,-15 47,-31 70,-48l-76 -90c-6,-6 -5,-16 2,-22l13 -11c7,-6 17,-5 22,2l77 92c32,-25 63,-49 96,-69l-37 -104c-3,-8 1,-17 9,-20l17 -6c8,-3 17,1 20,9l35 97c36,-17 75,-29 119,-32l0 -101c0,-9 7,-16 16,-16l18 0c8,0 15,7 15,16l0 101zm25 41c30,7 58,21 82,39 -5,-1 -11,-2 -16,-2 -37,0 -67,30 -67,67 0,38 30,68 67,68 37,0 67,-30 67,-68 0,-3 0,-6 -1,-9 20,32 32,71 32,111 0,78 -42,145 -104,182 98,-38 175,-121 266,-177l0 -17c-109,-67 -197,-174 -326,-194zm-156 388c-62,-37 -103,-104 -103,-182 0,-100 70,-184 163,-206 -128,21 -217,127 -325,194l0 17c91,56 167,139 265,177zm92 -113c35,0 64,29 64,64 0,36 -29,65 -64,65 -36,0 -65,-29 -65,-65 0,-35 29,-64 65,-64zm16 -94c14,0 25,12 25,25 0,14 -11,25 -25,25 -13,0 -25,-11 -25,-25 0,-13 12,-25 25,-25zm20 -158c18,0 32,15 32,32 0,18 -14,33 -32,33 -18,0 -32,-15 -32,-33 0,-17 14,-32 32,-32z" fill="currentColor"/>
</svg>