<svg xmlns="http://www.w3.org/2000/svg" viewBox="-5.0 -10.0 110.0 135.0">
  <path d="m50 5c-24.852 0-45 20.148-45 45s20.148 45 45 45 45-20.148 45-45-20.148-45-45-45zm0 82.871c-20.922 0-37.871-16.949-37.871-37.871s16.949-37.871 37.871-37.871 37.871 16.949 37.871 37.871-16.949 37.871-37.871 37.871z" fill="currentColor"/>
  <path d="m58.199 38.66v-3.4883c0-0.85156-2.1719-2.0703-5.5312-2.3203l-2.4297 0.011719c-3.7812 0.28906-8.4414 1.9102-8.4414 5.6992 0 6.1719 2.7891 7.0703 9.1094 8.5117 5.6719 1.2891 14.262 3.25 14.262 14.84 0 4-1.9883 7.3594-5.6016 9.4609-1.9609 1.1289-4.1016 1.7383-6.0781 2.0586v6.6602h-6.9688v-6.5c-6.1797-0.67969-11.68-3.5195-11.68-8.3711v-3.4883h6.9688v1.9297c0 0.87891 0.51172 1.6914 1.3203 2.0195 1.3906 0.57031 3.5781 1.0586 5.9805 1.1094h0.67969c1.4688-0.019531 2.9883-0.21094 4.4297-0.66016 3.9805-1.2383 3.9805-3.4102 3.9805-4.2188 0-5.7891-2.7109-6.6484-8.8398-8.0508-5.7812-1.3203-14.52-3.3086-14.531-15.301 0-6.9414 5.4414-10.859 11.68-12.199v-6.4414l6.9609-0.011719 0.011719 6.0117c6.9688 0.58984 11.691 4.2188 11.691 9.25v3.4883z" fill="currentColor"/>
</svg>