<svg xmlns="http://www.w3.org/2000/svg" xmlns:xlink="http://www.w3.org/1999/xlink" version="1.1" x="0px" y="0px" viewBox="0 0 100 125" style="enable-background:new 0 0 100 100;" xml:space="preserve"><style type="text/css">
	.st0{fill:none;stroke:#000000;stroke-miterlimit:10;}
	.st1{fill:none;stroke:#FFFFFF;stroke-linecap:round;stroke-linejoin:round;stroke-miterlimit:10;}
	.st2{fill:none;stroke:#000000;stroke-linecap:round;stroke-linejoin:round;stroke-miterlimit:10;}
</style><g><g><path d="M49.4740791,49.6156998c-1.0010796,0.3034019-24.6234016,6.168602-28.4560013,7.1192017    C20.9674778,56.4213982,20.927,56.118,20.8865776,55.8045006c2.5988007-0.707901,16.1898994-4.4191017,17.7369995-5.2382011    c1.9416008-1.031498,3.8731003-6.9067993,3.1957016-9.9202003c-1.1935005-2.7707977-11.1844006-13.8539982-13.0654011-15.9269981    c0.2832012-0.3438015,0.6170006-0.7382011,1.011301-1.1730003L50.0505791,45.2472    c0.3944206,0.3539009,1.3551979,1.4763985,1.1022987,2.3965988    C50.7786789,49.0089989,50.3337784,49.3527985,49.4740791,49.6156998z"/><path d="M54.2270012,57.4325981c0,1.6685028-2.9326248,20.4068031-4.5404243,30.4989052    c-4.3381004-0.4955063-8.4032974-1.9517059-12.0438995-4.196701c3.9944,1.9821014,7.3011017,2.5484009,8.1506004,2.5484009    c1.769722,0,2.2956009-1.8000031,2.325901-2.7102051c0.0606003-0.5459976,1.5471001-13.3786011,1.6279984-16.3718948    c0.0810013-3.1854019-3.9031754-5.8348045-5.2178993-6.6943016l-0.1212769-0.0810013    c-1.2843246-0.8595009-3.1348228-0.0809021-3.2361221-0.0404015c-5.3493996,2.6798019-15.5830002,7.786499-16.0684013,7.9989014    c-0.2223988,0.1010971-0.3944778,0.2123032-0.5359993,0.3337021c-0.0404778-0.0911026-0.0911007-0.1819992-0.1314774-0.2731018    L50.0910759,55.8652c0.7888031-0.3741989,1.8304024-0.7787018,2.1236-0.7787018    C52.4775772,55.0864983,54.2270012,55.5214005,54.2270012,57.4325981z"/><path d="M48.9382782,13.2416c-3.5191002,0.1718998-6.6235008,0.9707003-9.3135986,2.1033001    c4.065197-2.1033001,8.5853996-3.2764006,13.3887978-3.2764006c4.975399,0,9.6977997,1.2843008,13.934803,3.5495005    l-1.7494049,0.5965996l-0.0909958,0.2021999c0,0.0202999-0.1416016,0.3439007-0.3740997,0.8596001    C59.5864792,14.3641005,54.2774773,12.9989004,48.9382782,13.2416z"/><path d="M65.9471741,17.0337009l1.1731033-0.404501l1.0517197,0.7483006l-9.3944206,23.7033978    c0,0.0202026-0.5560989,2.1337013-1.9819984,2.1337013c-1.5270004,0-2.427002-1.4258003-3.4382019-3.286499    c-0.2831993-0.5056992-1.4258003-2.4168015-2.9628983-4.9347992c0.6977005,0.5156975,1.5775223,0.910099,2.659523,0.910099    c3.1450005,0,5.0055771-1.4360008,5.6932755-2.7708015C59.3842773,31.8887997,65.1281738,18.8943996,65.9471741,17.0337009z"/><path d="M71.0438766,76.5954971c-3.610199,3.6304016-7.4528008,5.8753052-10.2539978,7.1798019    c-0.0200996-0.3740997-0.0403023-0.7584-0.0707016-1.1629028c2.5584984-1.5977936,6.0978241-4.2876968,8.9796982-8.2718964    c2.0124054-2.7910995,3.6606979-6.0067978,4.9248047-9.5460968c1.3953934,0.7179947,2.6291962,1.3550949,3.3673935,1.739296    C76.3224792,70.2854004,74.1080017,73.5010986,71.0438766,76.5954971z"/><path d="M74.2090759,27.1562004c0.7079239-1.1023006,1.3246002-2.0528011,1.7899246-2.7910004l0.0605774,0.0708008    L74.2090759,27.1562004z"/><path d="M62.9539986,55.3797989L81.6415787,65.552803l-0.4044037,0.8899002l-2.0932999-0.455101    c-0.7482986-0.384201-8.4640961-4.3685036-11.4775009-5.9157028c-3.286499-1.6786995-4.8943748-0.1314011-6.441597,1.3652    l-0.3236008,0.303299c-0.5662994,0.5461006-0.9707985,1.3147011-1.2741776,2.1135025    c-0.1516228-2.6898994-0.2427216-4.6416016-0.2427216-5.0764008L59.374176,58.2416    c-0.0100975-1.3550987-0.0100975-1.8101997,0.9707031-2.831501C61.3157768,54.4090004,62.862999,55.3292007,62.9539986,55.3797989    z"/><path d="M77.1618805,51.3853989c0.0202942-0.4246979,0.0303955-0.8594971,0.0303955-1.2841988    c0-6.8157997-1.5371017-13.6012001-4.3180008-19.1630001l2.2550049-3.3269997    c0.6369934,0.8696995,1.1527176,1.6786995,1.486496,2.3764992c1.4258041,2.9527988,5.9358978,13.176302,5.0461044,22.5707989    C80.3572769,52.2247009,78.7696762,51.8101006,77.1618805,51.3853989z"/><path d="M82.9663773,66.2707977C78.7696762,76.4944,70.7201767,84.2304001,60.9820786,87.0011978    c-0.0303001-0.4753952-0.0708008-1.213501-0.1315994-2.143898c2.9125214-1.3145981,7.0485229-3.6605988,10.9113007-7.5539017    c3.15522-3.1753006,5.4304962-6.4819946,7.149498-10.3450012l2.902298,0.6473007l0.7179031-1.5674973L82.9663773,66.2707977z"/><path d="M65.7854767,40.3224983c-0.1921997,0.6674004-0.3439026,1.4764023-0.3439026,2.3865013    c0,2.6292,1.4157028,6.7449989,4.0550995,7.6146011c2.2348022,0.7280998,12.6708069,3.4179993,14.622406,3.9134979    l0.0505981,0.232502l-19.7495041-4.8740997c-0.0807953-0.0101013-2.1032982-0.3640022-2.1032982-2.7607002    c0-0.960701,0.3438034-1.6786003,0.8595009-2.4573021C63.3180008,44.1651001,64.3494797,42.5573006,65.7854767,40.3224983z"/><path d="M56.3606758,5.3741999c-21.306675,0-38.6493988,20.0223999-38.6493988,44.6258011    s17.3427219,44.6258011,38.6493988,44.6258011C77.6674805,94.6258011,95,74.6034012,95,50    S77.6674805,5.3741999,56.3606758,5.3741999z M53.0134773,89.1348038c-18.7784767,0-33.4919968-17.1505051-33.4919968-39.0336037    c0-21.893301,14.713522-39.0438995,33.4919968-39.0438995c18.8091011,0,34.1191978,17.5145988,34.1191978,39.0438995    C87.1326752,71.6202011,71.8225784,89.1348038,53.0134773,89.1348038z M16.700079,50    c0-18.2224998,9.3337002-33.9775009,22.7830982-41.2887993C19.6426792,11.0775003,5,28.3393002,5,50    s14.6426792,38.9225006,34.4831772,41.2787018C26.0337791,83.9776001,16.700079,68.2225037,16.700079,50z"/><path d="M60.1123772,49.9191017c0,2.0224991-1.466301,3.6606979-3.2763786,3.6606979    c-1.8101196,0-3.2764206-1.6381989-3.2764206-3.6606979c0-2.0124016,1.466301-3.6506004,3.2764206-3.6506004    C58.6460762,46.2685013,60.1123772,47.9067001,60.1123772,49.9191017z"/><path d="M64.2281799,50.5864983c-0.9809036-0.1415977-2.9225044-1.1223984-2.9225044-3.7516975    c0-1.2842026,0.4955025-2.2145996,1.0315018-3.0236015c0.4752007-0.707798,11.8416023-18.4650993,13.5607033-21.1549988    c-1.9618835-2.1539001-4.1462021-4.0347996-6.5225067-5.5922012L59.7382774,41.384201    c-0.0101013,0.0606995-0.7280006,2.8415985-2.9426994,2.8415985c-2.2449989,0-3.3977013-2.1133995-4.3281021-3.8122978    c-0.9404755-1.7090034-12.3977966-20.3562012-14.2178993-23.3292027c-3.4079971,1.719101-6.0169983,3.9135017-7.7865772,5.7337017    l20.2953777,21.7010994c0.050621,0.0404015,1.8404999,1.6888008,1.3754005,3.3978004    c-0.4449997,1.5673981-1.061779,2.2650986-2.3664017,2.6695976c-1.0516968,0.3135033-24.9369984,6.2393036-28.5976982,7.1495018    c0.5764008,3.4684982,1.5573215,6.7449036,2.8618011,9.7786026L49.6562767,54.955101    c0.4347992-0.202301,1.901001-0.8798027,2.5583992-0.8798027c0.7786026,0,3.0236015,0.8292007,3.0236015,3.3572998    c0,2.052803-3.8832016,26.4944038-4.5405006,30.589901c0.7584,0.0606995,1.5270004,0.1010971,2.3157005,0.1010971    c2.3866005,0,4.722599-0.3033981,6.9776001-0.8594971c-0.2224007-3.5494995-1.618-26.8078995-1.618-28.486599    l-0.0102005-0.5257988c-0.0101013-1.4360008-0.0201988-2.2348022,1.264122-3.5494003    c1.2234802-1.2640991,3.0437775-0.6776009,3.8325768-0.1921997L83.340477,65.3303986    c1.1325989-2.9730988,1.9517975-6.1381989,2.396698-9.4348984L64.2281799,50.5864983z M56.8359985,54.5909996    c-2.3663216,0-4.2877197-2.0932007-4.2877197-4.6718979c0-2.5685005,1.9213982-4.6618004,4.2877197-4.6618004    c2.3662796,0,4.2875786,2.0932999,4.2875786,4.6618004C61.1235771,52.4977989,59.2022781,54.5909996,56.8359985,54.5909996z"/><path d="M77.3134766,24.3854008l-0.7381973-0.9202003c0.0101013-0.0101013,0.0101013-0.0101013,0.0202942-0.0202999    c5.8854294,6.8663998,9.5258026,16.2809982,9.5258026,26.6562996c0,1.6179008-0.1010971,3.2056007-0.2730026,4.7729988    l-0.5763702-0.1415977l-0.3034286-1.3246994l-0.3033981-0.0708008c-0.0304031-0.0102005-0.8089981-0.2124023-2.0123978-0.5158005    c0.980896-9.7078018-3.6605988-20.2448997-5.1268997-23.2786007c-0.4045029-0.8190994-1.0213013-1.7898998-1.8000031-2.8111992    L77.3134766,24.3854008z"/></g></g><text x="0" y="115" fill="#000000" font-size="5px" font-weight="bold" font-family="'Helvetica Neue', Helvetica, Arial-Unicode, Arial, Sans-serif">Created by Alone forever</text><text x="0" y="120" fill="#000000" font-size="5px" font-weight="bold" font-family="'Helvetica Neue', Helvetica, Arial-Unicode, Arial, Sans-serif">from the Noun Project</text></svg>